STARTFONT 2.1
FONT -Monotype-Century Schoolbook-Bold-I-Normal--12-120-75-75-P-72-iso8859-2
SIZE 12 75 75
FONTBOUNDINGBOX 16 16 -2 -3

STARTPROPERTIES 22
FOUNDRY "Monotype"
FAMILY_NAME "Century Schoolbook"
WEIGHT_NAME "Bold"
SLANT "I"
SETWIDTH_NAME "Normal"
ADD_STYLE_NAME ""
PIXEL_SIZE 12
POINT_SIZE 120
RESOLUTION_X 75
RESOLUTION_Y 75
SPACING "P"
AVERAGE_WIDTH 72
CHARSET_REGISTRY "iso8859"
CHARSET_ENCODING "2"
COPYRIGHT "Copyright (c) 1996 Monotype Typography Ltd."
CAP_HEIGHT 11
X_HEIGHT 7
WEIGHT 10
QUAD_WIDTH 8
DEFAULT_CHAR 160
FONT_DESCENT 3
FONT_ASCENT 13
ENDPROPERTIES

CHARS 191

STARTCHAR space
ENCODING 32
SWIDTH 287 0
DWIDTH 4 0
BBX 0 0 0 0
BITMAP
ENDCHAR

STARTCHAR exclam
ENCODING 33
SWIDTH 333 0
DWIDTH 4 0
BBX 4 9 0 0
BITMAP
30
30
30
60
60
40
00
C0
C0
ENDCHAR

STARTCHAR quotedbl
ENCODING 34
SWIDTH 400 0
DWIDTH 5 0
BBX 5 4 1 5
BITMAP
D8
D8
D8
90
ENDCHAR

STARTCHAR numbersign
ENCODING 35
SWIDTH 606 0
DWIDTH 8 0
BBX 8 9 0 0
BITMAP
12
12
7F
24
24
FE
48
48
48
ENDCHAR

STARTCHAR dollar
ENCODING 36
SWIDTH 574 0
DWIDTH 7 0
BBX 7 12 1 -2
BITMAP
04
1E
32
30
38
1C
0C
8C
CC
78
20
20
ENDCHAR

STARTCHAR percent
ENCODING 37
SWIDTH 889 0
DWIDTH 12 0
BBX 9 9 2 0
BITMAP
2100
7200
9200
E400
4900
0B80
1480
2700
2200
ENDCHAR

STARTCHAR ampersand
ENCODING 38
SWIDTH 889 0
DWIDTH 12 0
BBX 10 9 1 0
BITMAP
0E00
1B00
1B00
1E00
39C0
6C80
CC80
C740
7B80
ENDCHAR

STARTCHAR quoteright
ENCODING 39
SWIDTH 259 0
DWIDTH 3 0
BBX 3 4 1 5
BITMAP
60
60
20
C0
ENDCHAR

STARTCHAR parenleft
ENCODING 40
SWIDTH 407 0
DWIDTH 5 0
BBX 5 11 1 -2
BITMAP
18
30
60
60
C0
C0
C0
C0
C0
60
20
ENDCHAR

STARTCHAR parenright
ENCODING 41
SWIDTH 407 0
DWIDTH 5 0
BBX 5 11 0 -2
BITMAP
20
30
10
18
18
18
18
30
30
60
C0
ENDCHAR

STARTCHAR asterisk
ENCODING 42
SWIDTH 500 0
DWIDTH 7 0
BBX 5 5 1 3
BITMAP
20
A8
70
70
88
ENDCHAR

STARTCHAR plus
ENCODING 43
SWIDTH 606 0
DWIDTH 8 0
BBX 7 7 1 1
BITMAP
10
10
10
FE
10
10
10
ENDCHAR

STARTCHAR comma
ENCODING 44
SWIDTH 287 0
DWIDTH 4 0
BBX 3 4 0 -2
BITMAP
60
60
20
C0
ENDCHAR

STARTCHAR minus
ENCODING 45
SWIDTH 606 0
DWIDTH 8 0
BBX 7 1 1 4
BITMAP
FE
ENDCHAR

STARTCHAR period
ENCODING 46
SWIDTH 287 0
DWIDTH 4 0
BBX 2 2 1 0
BITMAP
C0
C0
ENDCHAR

STARTCHAR slash
ENCODING 47
SWIDTH 278 0
DWIDTH 4 0
BBX 8 10 -2 0
BITMAP
01
03
06
0C
18
18
30
60
C0
80
ENDCHAR

STARTCHAR zero
ENCODING 48
SWIDTH 574 0
DWIDTH 7 0
BBX 6 9 1 0
BITMAP
18
2C
6C
6C
CC
D8
D8
D0
60
ENDCHAR

STARTCHAR one
ENCODING 49
SWIDTH 574 0
DWIDTH 7 0
BBX 6 9 0 0
BITMAP
04
3C
0C
18
18
18
30
30
FC
ENDCHAR

STARTCHAR two
ENCODING 50
SWIDTH 574 0
DWIDTH 7 0
BBX 7 9 0 0
BITMAP
3C
66
26
0C
08
10
22
7C
FC
ENDCHAR

STARTCHAR three
ENCODING 51
SWIDTH 574 0
DWIDTH 7 0
BBX 7 9 0 0
BITMAP
1C
36
16
06
3C
0C
4C
CC
78
ENDCHAR

STARTCHAR four
ENCODING 52
SWIDTH 574 0
DWIDTH 7 0
BBX 7 9 0 0
BITMAP
06
0E
16
16
2C
4C
FE
18
3C
ENDCHAR

STARTCHAR five
ENCODING 53
SWIDTH 574 0
DWIDTH 7 0
BBX 8 9 0 0
BITMAP
1F
1E
10
3C
26
06
46
CC
78
ENDCHAR

STARTCHAR six
ENCODING 54
SWIDTH 574 0
DWIDTH 7 0
BBX 7 9 1 0
BITMAP
1C
36
60
78
CC
CC
CC
D8
70
ENDCHAR

STARTCHAR seven
ENCODING 55
SWIDTH 574 0
DWIDTH 7 0
BBX 7 9 1 0
BITMAP
7E
FE
84
08
18
30
30
60
60
ENDCHAR

STARTCHAR eight
ENCODING 56
SWIDTH 574 0
DWIDTH 7 0
BBX 7 9 0 0
BITMAP
1C
32
32
3A
5C
CC
CC
C8
70
ENDCHAR

STARTCHAR nine
ENCODING 57
SWIDTH 574 0
DWIDTH 7 0
BBX 7 9 0 0
BITMAP
1C
36
66
66
66
3C
0C
D8
70
ENDCHAR

STARTCHAR colon
ENCODING 58
SWIDTH 287 0
DWIDTH 4 0
BBX 3 6 1 0
BITMAP
60
60
00
00
C0
C0
ENDCHAR

STARTCHAR semicolon
ENCODING 59
SWIDTH 287 0
DWIDTH 4 0
BBX 4 8 0 -2
BITMAP
30
30
00
00
60
60
20
C0
ENDCHAR

STARTCHAR less
ENCODING 60
SWIDTH 606 0
DWIDTH 8 0
BBX 7 7 1 1
BITMAP
02
0E
38
E0
38
0E
02
ENDCHAR

STARTCHAR equal
ENCODING 61
SWIDTH 606 0
DWIDTH 8 0
BBX 7 3 1 3
BITMAP
FE
00
FE
ENDCHAR

STARTCHAR greater
ENCODING 62
SWIDTH 606 0
DWIDTH 8 0
BBX 7 7 1 1
BITMAP
80
E0
38
0E
38
E0
80
ENDCHAR

STARTCHAR question
ENCODING 63
SWIDTH 481 0
DWIDTH 6 0
BBX 5 10 1 0
BITMAP
30
58
58
18
30
60
50
20
C0
C0
ENDCHAR

STARTCHAR at
ENCODING 64
SWIDTH 747 0
DWIDTH 10 0
BBX 10 10 0 0
BITMAP
0F00
3080
4240
8E40
9640
9640
9680
9D40
4080
3F00
ENDCHAR

STARTCHAR A
ENCODING 65
SWIDTH 741 0
DWIDTH 10 0
BBX 9 9 0 0
BITMAP
0300
0700
0700
0B00
1300
1F00
2300
4300
E780
ENDCHAR

STARTCHAR B
ENCODING 66
SWIDTH 759 0
DWIDTH 10 0
BBX 10 9 0 0
BITMAP
3F80
18C0
18C0
3180
3F00
3180
6180
6300
FE00
ENDCHAR

STARTCHAR C
ENCODING 67
SWIDTH 759 0
DWIDTH 10 0
BBX 9 9 1 0
BITMAP
0E80
3180
6080
6080
C000
C000
C100
6200
3C00
ENDCHAR

STARTCHAR D
ENCODING 68
SWIDTH 833 0
DWIDTH 11 0
BBX 10 9 1 0
BITMAP
3F80
18C0
18C0
30C0
30C0
3180
6180
6300
FE00
ENDCHAR

STARTCHAR E
ENCODING 69
SWIDTH 741 0
DWIDTH 10 0
BBX 10 9 0 0
BITMAP
3F80
18C0
1840
3200
3E00
3400
6080
6180
FF00
ENDCHAR

STARTCHAR F
ENCODING 70
SWIDTH 704 0
DWIDTH 9 0
BBX 10 9 0 0
BITMAP
3F80
18C0
1840
3200
3E00
3400
6000
6000
F000
ENDCHAR

STARTCHAR G
ENCODING 71
SWIDTH 815 0
DWIDTH 11 0
BBX 10 9 1 0
BITMAP
1E80
3180
6080
6080
C000
C3C0
C180
6300
3D00
ENDCHAR

STARTCHAR H
ENCODING 72
SWIDTH 870 0
DWIDTH 11 0
BBX 12 9 0 0
BITMAP
3CF0
1860
1860
30C0
3FC0
30C0
6180
6180
F3C0
ENDCHAR

STARTCHAR I
ENCODING 73
SWIDTH 444 0
DWIDTH 6 0
BBX 6 9 0 0
BITMAP
3C
18
18
30
30
30
60
60
F0
ENDCHAR

STARTCHAR J
ENCODING 74
SWIDTH 667 0
DWIDTH 9 0
BBX 8 9 1 0
BITMAP
0F
06
06
0C
0C
4C
D8
98
70
ENDCHAR

STARTCHAR K
ENCODING 75
SWIDTH 778 0
DWIDTH 10 0
BBX 10 9 0 0
BITMAP
3DC0
1880
1900
3600
3A00
3300
6300
6180
F3C0
ENDCHAR

STARTCHAR L
ENCODING 76
SWIDTH 704 0
DWIDTH 9 0
BBX 8 9 0 0
BITMAP
3C
18
18
30
30
31
61
63
FE
ENDCHAR

STARTCHAR M
ENCODING 77
SWIDTH 944 0
DWIDTH 12 0
BBX 13 9 0 0
BITMAP
3878
1870
18B0
2CB0
2D60
2D60
4EC0
4EC0
EDE0
ENDCHAR

STARTCHAR N
ENCODING 78
SWIDTH 852 0
DWIDTH 10 0
BBX 11 9 0 0
BITMAP
30E0
1840
1840
2C40
2C80
2680
4780
4300
E300
ENDCHAR

STARTCHAR O
ENCODING 79
SWIDTH 833 0
DWIDTH 11 0
BBX 10 9 1 0
BITMAP
0F00
3180
60C0
60C0
C0C0
C180
C180
6300
3C00
ENDCHAR

STARTCHAR P
ENCODING 80
SWIDTH 741 0
DWIDTH 10 0
BBX 10 9 0 0
BITMAP
3F80
18C0
18C0
3180
3F00
3000
6000
6000
F000
ENDCHAR

STARTCHAR Q
ENCODING 81
SWIDTH 833 0
DWIDTH 11 0
BBX 10 11 1 -2
BITMAP
0F00
3180
60C0
60C0
C0C0
D980
ED80
6700
3E00
0680
0300
ENDCHAR

STARTCHAR R
ENCODING 82
SWIDTH 796 0
DWIDTH 10 0
BBX 10 9 0 0
BITMAP
3F80
18C0
18C0
30C0
3F80
3300
6300
6340
F180
ENDCHAR

STARTCHAR S
ENCODING 83
SWIDTH 685 0
DWIDTH 9 0
BBX 8 9 1 0
BITMAP
1D
33
61
70
38
1C
86
C6
BC
ENDCHAR

STARTCHAR T
ENCODING 84
SWIDTH 722 0
DWIDTH 9 0
BBX 9 9 1 0
BITMAP
7F80
6D80
CC80
9880
1800
1800
3000
3000
7800
ENDCHAR

STARTCHAR U
ENCODING 85
SWIDTH 833 0
DWIDTH 11 0
BBX 11 9 1 0
BITMAP
78E0
3040
3040
6080
6080
C100
C100
E200
7C00
ENDCHAR

STARTCHAR V
ENCODING 86
SWIDTH 741 0
DWIDTH 10 0
BBX 9 9 2 0
BITMAP
F380
6100
6200
6200
6400
6800
6800
7000
6000
ENDCHAR

STARTCHAR W
ENCODING 87
SWIDTH 944 0
DWIDTH 12 0
BBX 13 9 1 0
BITMAP
F7B8
6310
6320
6720
6740
6B40
7380
7380
6300
ENDCHAR

STARTCHAR X
ENCODING 88
SWIDTH 741 0
DWIDTH 10 0
BBX 10 9 0 0
BITMAP
79C0
3080
1900
1E00
0C00
1E00
2600
4300
E780
ENDCHAR

STARTCHAR Y
ENCODING 89
SWIDTH 704 0
DWIDTH 9 0
BBX 10 9 1 0
BITMAP
F3C0
6180
6100
3200
3C00
1800
1800
1800
3C00
ENDCHAR

STARTCHAR Z
ENCODING 90
SWIDTH 704 0
DWIDTH 9 0
BBX 9 9 1 0
BITMAP
3F80
6300
4600
0C00
1800
1800
3100
6300
FE00
ENDCHAR

STARTCHAR bracketleft
ENCODING 91
SWIDTH 407 0
DWIDTH 5 0
BBX 5 11 1 -2
BITMAP
38
30
30
30
60
60
60
C0
C0
C0
E0
ENDCHAR

STARTCHAR backslash
ENCODING 92
SWIDTH 606 0
DWIDTH 8 0
BBX 6 9 1 0
BITMAP
C0
60
20
30
10
18
08
0C
04
ENDCHAR

STARTCHAR bracketright
ENCODING 93
SWIDTH 407 0
DWIDTH 5 0
BBX 5 11 0 -2
BITMAP
38
18
18
18
30
30
30
60
60
60
E0
ENDCHAR

STARTCHAR asciicircum
ENCODING 94
SWIDTH 606 0
DWIDTH 8 0
BBX 5 5 2 4
BITMAP
20
20
70
D8
88
ENDCHAR

STARTCHAR underscore
ENCODING 95
SWIDTH 500 0
DWIDTH 7 0
BBX 7 1 0 -2
BITMAP
FE
ENDCHAR

STARTCHAR quoteleft
ENCODING 96
SWIDTH 259 0
DWIDTH 3 0
BBX 3 4 1 5
BITMAP
60
80
C0
C0
ENDCHAR

STARTCHAR a
ENCODING 97
SWIDTH 667 0
DWIDTH 9 0
BBX 7 6 1 0
BITMAP
3A
6E
C6
CC
DE
6C
ENDCHAR

STARTCHAR b
ENCODING 98
SWIDTH 611 0
DWIDTH 8 0
BBX 7 9 1 0
BITMAP
70
30
30
7C
66
66
C6
CC
70
ENDCHAR

STARTCHAR c
ENCODING 99
SWIDTH 537 0
DWIDTH 7 0
BBX 6 6 1 0
BITMAP
38
6C
C4
C0
C8
70
ENDCHAR

STARTCHAR d
ENCODING 100
SWIDTH 667 0
DWIDTH 9 0
BBX 8 9 1 0
BITMAP
07
03
03
3E
66
C6
CC
CD
76
ENDCHAR

STARTCHAR e
ENCODING 101
SWIDTH 519 0
DWIDTH 7 0
BBX 6 6 1 0
BITMAP
38
6C
CC
F0
C8
70
ENDCHAR

STARTCHAR f
ENCODING 102
SWIDTH 389 0
DWIDTH 5 0
BBX 7 11 0 -2
BITMAP
0C
1A
30
78
30
30
60
60
60
C0
C0
ENDCHAR

STARTCHAR g
ENCODING 103
SWIDTH 611 0
DWIDTH 8 0
BBX 9 8 0 -2
BITMAP
1D80
3700
3300
1E00
3800
7C00
C600
7800
ENDCHAR

STARTCHAR h
ENCODING 104
SWIDTH 685 0
DWIDTH 9 0
BBX 8 9 1 0
BITMAP
70
30
30
3C
76
66
6C
CD
C6
ENDCHAR

STARTCHAR i
ENCODING 105
SWIDTH 389 0
DWIDTH 5 0
BBX 4 9 1 0
BITMAP
30
30
00
E0
60
60
C0
C0
60
ENDCHAR

STARTCHAR j
ENCODING 106
SWIDTH 370 0
DWIDTH 5 0
BBX 7 11 -1 -2
BITMAP
06
06
00
1C
0C
0C
18
18
18
B0
E0
ENDCHAR

STARTCHAR k
ENCODING 107
SWIDTH 648 0
DWIDTH 8 0
BBX 7 9 1 0
BITMAP
70
30
30
2C
76
6C
78
D6
CC
ENDCHAR

STARTCHAR l
ENCODING 108
SWIDTH 389 0
DWIDTH 5 0
BBX 4 9 1 0
BITMAP
70
30
30
60
60
60
C0
D0
60
ENDCHAR

STARTCHAR m
ENCODING 109
SWIDTH 944 0
DWIDTH 13 0
BBX 12 6 1 0
BITMAP
ECC0
7760
6660
CCC0
CCD0
CCE0
ENDCHAR

STARTCHAR n
ENCODING 110
SWIDTH 685 0
DWIDTH 9 0
BBX 8 6 1 0
BITMAP
EC
76
66
CC
CD
CE
ENDCHAR

STARTCHAR o
ENCODING 111
SWIDTH 574 0
DWIDTH 7 0
BBX 7 6 0 0
BITMAP
3C
66
C6
C6
CC
78
ENDCHAR

STARTCHAR p
ENCODING 112
SWIDTH 648 0
DWIDTH 8 0
BBX 8 8 0 -2
BITMAP
6E
33
33
33
36
6C
60
F0
ENDCHAR

STARTCHAR q
ENCODING 113
SWIDTH 630 0
DWIDTH 8 0
BBX 7 8 1 -2
BITMAP
3A
6E
C6
CC
DC
6C
18
3C
ENDCHAR

STARTCHAR r
ENCODING 114
SWIDTH 519 0
DWIDTH 6 0
BBX 6 6 1 0
BITMAP
D8
6C
60
C0
C0
C0
ENDCHAR

STARTCHAR s
ENCODING 115
SWIDTH 481 0
DWIDTH 6 0
BBX 7 6 0 0
BITMAP
3C
76
30
18
DC
78
ENDCHAR

STARTCHAR t
ENCODING 116
SWIDTH 407 0
DWIDTH 5 0
BBX 5 8 1 0
BITMAP
30
30
F8
60
60
C0
D0
E0
ENDCHAR

STARTCHAR u
ENCODING 117
SWIDTH 685 0
DWIDTH 9 0
BBX 8 6 1 0
BITMAP
E6
66
CC
CC
DD
76
ENDCHAR

STARTCHAR v
ENCODING 118
SWIDTH 556 0
DWIDTH 7 0
BBX 6 6 1 0
BITMAP
E8
6C
C4
CC
D8
70
ENDCHAR

STARTCHAR w
ENCODING 119
SWIDTH 833 0
DWIDTH 11 0
BBX 10 6 1 0
BITMAP
E680
66C0
CC40
CCC0
DD80
6700
ENDCHAR

STARTCHAR x
ENCODING 120
SWIDTH 574 0
DWIDTH 7 0
BBX 8 6 0 0
BITMAP
23
76
18
18
6E
C4
ENDCHAR

STARTCHAR y
ENCODING 121
SWIDTH 519 0
DWIDTH 7 0
BBX 7 8 0 -2
BITMAP
32
5A
1A
1C
0C
0C
D8
70
ENDCHAR

STARTCHAR z
ENCODING 122
SWIDTH 519 0
DWIDTH 7 0
BBX 7 6 0 0
BITMAP
36
4E
1C
70
E4
D8
ENDCHAR

STARTCHAR braceleft
ENCODING 123
SWIDTH 407 0
DWIDTH 5 0
BBX 5 11 1 -2
BITMAP
18
30
30
60
60
80
40
C0
C0
80
40
ENDCHAR

STARTCHAR bar
ENCODING 124
SWIDTH 606 0
DWIDTH 8 0
BBX 2 11 3 -2
BITMAP
C0
C0
C0
C0
C0
C0
C0
C0
C0
C0
C0
ENDCHAR

STARTCHAR braceright
ENCODING 125
SWIDTH 407 0
DWIDTH 5 0
BBX 5 11 0 -2
BITMAP
10
08
18
18
10
08
30
30
60
60
C0
ENDCHAR

STARTCHAR asciitilde
ENCODING 126
SWIDTH 606 0
DWIDTH 8 0
BBX 7 2 1 3
BITMAP
7A
9C
ENDCHAR

STARTCHAR space
ENCODING 160
SWIDTH 287 0
DWIDTH 5 0
BBX 0 0 0 0
BITMAP
ENDCHAR

STARTCHAR Aogonek
ENCODING 161
SWIDTH 741 0
DWIDTH 10 0
BBX 9 11 0 -2
BITMAP
0300
0700
0700
0B00
1300
1F00
2300
4300
E780
0200
0180
ENDCHAR

STARTCHAR breve
ENCODING 162
SWIDTH 333 0
DWIDTH 4 0
BBX 4 2 1 7
BITMAP
90
60
ENDCHAR

STARTCHAR Lslash
ENCODING 163
SWIDTH 704 0
DWIDTH 9 0
BBX 8 9 0 0
BITMAP
3C
1A
1C
30
70
B1
61
63
FE
ENDCHAR

STARTCHAR currency
ENCODING 164
SWIDTH 574 0
DWIDTH 7 0
BBX 6 6 1 1
BITMAP
B4
48
CC
CC
48
B4
ENDCHAR

STARTCHAR Lcaron
ENCODING 165
SWIDTH 704 0
DWIDTH 9 0
BBX 9 9 0 0
BITMAP
3D80
1880
1900
3000
3000
3100
6100
6300
FE00
ENDCHAR

STARTCHAR Sacute
ENCODING 166
SWIDTH 685 0
DWIDTH 9 0
BBX 8 12 1 0
BITMAP
06
08
00
1D
33
61
70
38
1C
86
C6
BC
ENDCHAR

STARTCHAR section
ENCODING 167
SWIDTH 500 0
DWIDTH 7 0
BBX 6 12 1 -2
BITMAP
18
34
24
30
58
48
48
68
30
90
B0
60
ENDCHAR

STARTCHAR dieresis
ENCODING 168
SWIDTH 333 0
DWIDTH 4 0
BBX 5 1 1 7
BITMAP
D8
ENDCHAR

STARTCHAR Scaron
ENCODING 169
SWIDTH 685 0
DWIDTH 9 0
BBX 8 12 1 0
BITMAP
0A
04
00
1D
33
61
70
38
1C
86
C6
BC
ENDCHAR

STARTCHAR Scommaaccent
ENCODING 170
SWIDTH 685 0
DWIDTH 9 0
BBX 8 12 1 -3
BITMAP
1D
33
61
70
38
1C
86
C6
BC
00
10
20
ENDCHAR

STARTCHAR Tcaron
ENCODING 171
SWIDTH 722 0
DWIDTH 9 0
BBX 9 12 1 0
BITMAP
0A00
0400
0000
7F80
6D80
CC80
9880
1800
1800
3000
3000
7800
ENDCHAR

STARTCHAR Zacute
ENCODING 172
SWIDTH 704 0
DWIDTH 9 0
BBX 9 12 1 0
BITMAP
0300
0400
0000
3F80
6300
4600
0C00
1800
1800
3100
6300
FE00
ENDCHAR

STARTCHAR hyphen
ENCODING 173
SWIDTH 333 0
DWIDTH 4 0
BBX 4 1 0 2
BITMAP
F0
ENDCHAR

STARTCHAR Zcaron
ENCODING 174
SWIDTH 704 0
DWIDTH 9 0
BBX 9 12 1 0
BITMAP
0A00
0400
0000
3F80
6300
4600
0C00
1800
1800
3100
6300
FE00
ENDCHAR

STARTCHAR Zdotaccent
ENCODING 175
SWIDTH 704 0
DWIDTH 9 0
BBX 9 11 1 0
BITMAP
0600
0000
3F80
6300
4600
0C00
1800
1800
3100
6300
FE00
ENDCHAR

STARTCHAR degree
ENCODING 176
SWIDTH 400 0
DWIDTH 5 0
BBX 4 4 1 5
BITMAP
60
90
90
60
ENDCHAR

STARTCHAR aogonek
ENCODING 177
SWIDTH 667 0
DWIDTH 9 0
BBX 7 8 1 -2
BITMAP
3A
6E
C6
CC
DE
6C
08
06
ENDCHAR

STARTCHAR ogonek
ENCODING 178
SWIDTH 333 0
DWIDTH 4 0
BBX 3 2 1 -2
BITMAP
80
60
ENDCHAR

STARTCHAR lslash
ENCODING 179
SWIDTH 389 0
DWIDTH 5 0
BBX 5 9 1 0
BITMAP
70
30
38
60
E0
60
C0
D0
60
ENDCHAR

STARTCHAR acute
ENCODING 180
SWIDTH 333 0
DWIDTH 4 0
BBX 3 2 2 7
BITMAP
60
80
ENDCHAR

STARTCHAR lcaron
ENCODING 181
SWIDTH 449 0
DWIDTH 5 0
BBX 6 9 1 0
BITMAP
74
34
38
60
60
60
C0
D0
60
ENDCHAR

STARTCHAR sacute
ENCODING 182
SWIDTH 481 0
DWIDTH 6 0
BBX 7 9 0 0
BITMAP
0C
10
00
3C
76
30
18
DC
78
ENDCHAR

STARTCHAR caron
ENCODING 183
SWIDTH 333 0
DWIDTH 4 0
BBX 3 2 2 7
BITMAP
A0
40
ENDCHAR

STARTCHAR commaaccent
ENCODING 184
SWIDTH 333 0
DWIDTH 4 0
BBX 2 2 1 -3
BITMAP
40
80
ENDCHAR

STARTCHAR scaron
ENCODING 185
SWIDTH 481 0
DWIDTH 6 0
BBX 7 9 0 0
BITMAP
14
08
00
3C
76
30
18
DC
78
ENDCHAR

STARTCHAR scommaaccent
ENCODING 186
SWIDTH 481 0
DWIDTH 6 0
BBX 7 9 0 -3
BITMAP
3C
76
30
18
DC
78
00
20
40
ENDCHAR

STARTCHAR tcaron
ENCODING 187
SWIDTH 506 0
DWIDTH 5 0
BBX 6 9 1 0
BITMAP
04
34
38
F8
60
60
C0
D0
E0
ENDCHAR

STARTCHAR zacute
ENCODING 188
SWIDTH 519 0
DWIDTH 7 0
BBX 7 9 0 0
BITMAP
06
08
00
36
4E
1C
70
E4
D8
ENDCHAR

STARTCHAR hungarumlaut
ENCODING 189
SWIDTH 333 0
DWIDTH 4 0
BBX 6 2 1 7
BITMAP
6C
90
ENDCHAR

STARTCHAR zcaron
ENCODING 190
SWIDTH 519 0
DWIDTH 7 0
BBX 7 9 0 0
BITMAP
14
08
00
36
4E
1C
70
E4
D8
ENDCHAR

STARTCHAR zdotaccent
ENCODING 191
SWIDTH 519 0
DWIDTH 7 0
BBX 7 8 0 0
BITMAP
0C
00
36
4E
1C
70
E4
D8
ENDCHAR

STARTCHAR Racute
ENCODING 192
SWIDTH 796 0
DWIDTH 10 0
BBX 10 12 0 0
BITMAP
0180
0200
0000
3F80
18C0
18C0
30C0
3F80
3300
6300
6340
F180
ENDCHAR

STARTCHAR Aacute
ENCODING 193
SWIDTH 741 0
DWIDTH 10 0
BBX 10 12 0 0
BITMAP
00C0
0100
0000
0300
0700
0700
0B00
1300
1F00
2300
4300
E780
ENDCHAR

STARTCHAR Acircumflex
ENCODING 194
SWIDTH 741 0
DWIDTH 10 0
BBX 9 12 0 0
BITMAP
0100
0280
0000
0300
0700
0700
0B00
1300
1F00
2300
4300
E780
ENDCHAR

STARTCHAR Abreve
ENCODING 195
SWIDTH 741 0
DWIDTH 10 0
BBX 9 12 0 0
BITMAP
0480
0300
0000
0300
0700
0700
0B00
1300
1F00
2300
4300
E780
ENDCHAR

STARTCHAR Adieresis
ENCODING 196
SWIDTH 741 0
DWIDTH 10 0
BBX 10 11 0 0
BITMAP
06C0
0000
0300
0700
0700
0B00
1300
1F00
2300
4300
E780
ENDCHAR

STARTCHAR Lacute
ENCODING 197
SWIDTH 704 0
DWIDTH 9 0
BBX 8 12 0 0
BITMAP
06
08
00
3C
18
18
30
30
31
61
63
FE
ENDCHAR

STARTCHAR Cacute
ENCODING 198
SWIDTH 759 0
DWIDTH 10 0
BBX 9 12 1 0
BITMAP
0300
0400
0000
0E80
3180
6080
6080
C000
C000
C100
6200
3C00
ENDCHAR

STARTCHAR Ccedilla
ENCODING 199
SWIDTH 759 0
DWIDTH 10 0
BBX 9 12 1 -3
BITMAP
0E80
3180
6080
6080
C000
C000
C100
6200
3C00
1000
0800
3000
ENDCHAR

STARTCHAR Ccaron
ENCODING 200
SWIDTH 759 0
DWIDTH 10 0
BBX 9 12 1 0
BITMAP
0A00
0400
0000
0E80
3180
6080
6080
C000
C000
C100
6200
3C00
ENDCHAR

STARTCHAR Eacute
ENCODING 201
SWIDTH 741 0
DWIDTH 10 0
BBX 10 12 0 0
BITMAP
0300
0400
0000
3F80
18C0
1840
3200
3E00
3400
6080
6180
FF00
ENDCHAR

STARTCHAR Eogonek
ENCODING 202
SWIDTH 741 0
DWIDTH 10 0
BBX 10 11 0 -2
BITMAP
3F80
18C0
1840
3200
3E00
3400
6080
6180
FF00
0200
0180
ENDCHAR

STARTCHAR Edieresis
ENCODING 203
SWIDTH 741 0
DWIDTH 10 0
BBX 10 11 0 0
BITMAP
0D80
0000
3F80
18C0
1840
3200
3E00
3400
6080
6180
FF00
ENDCHAR

STARTCHAR Ecaron
ENCODING 204
SWIDTH 741 0
DWIDTH 10 0
BBX 10 12 0 0
BITMAP
0500
0200
0000
3F80
18C0
1840
3200
3E00
3400
6080
6180
FF00
ENDCHAR

STARTCHAR Iacute
ENCODING 205
SWIDTH 444 0
DWIDTH 6 0
BBX 6 12 0 0
BITMAP
0C
10
00
3C
18
18
30
30
30
60
60
F0
ENDCHAR

STARTCHAR Icircumflex
ENCODING 206
SWIDTH 444 0
DWIDTH 6 0
BBX 6 12 0 0
BITMAP
08
14
00
3C
18
18
30
30
30
60
60
F0
ENDCHAR

STARTCHAR Dcaron
ENCODING 207
SWIDTH 833 0
DWIDTH 11 0
BBX 10 12 1 0
BITMAP
0500
0200
0000
3F80
18C0
18C0
30C0
30C0
3180
6180
6300
FE00
ENDCHAR

STARTCHAR Dcroat
ENCODING 208
SWIDTH 833 0
DWIDTH 11 0
BBX 10 9 1 0
BITMAP
3F80
18C0
18C0
30C0
7CC0
3180
6180
6300
FE00
ENDCHAR

STARTCHAR Nacute
ENCODING 209
SWIDTH 852 0
DWIDTH 10 0
BBX 11 12 0 0
BITMAP
0180
0200
0000
30E0
1840
1840
2C40
2C80
2680
4780
4300
E300
ENDCHAR

STARTCHAR Ncaron
ENCODING 210
SWIDTH 852 0
DWIDTH 10 0
BBX 11 12 0 0
BITMAP
0500
0200
0000
30E0
1840
1840
2C40
2C80
2680
4780
4300
E300
ENDCHAR

STARTCHAR Oacute
ENCODING 211
SWIDTH 833 0
DWIDTH 11 0
BBX 10 12 1 0
BITMAP
0180
0200
0000
0F00
3180
60C0
60C0
C0C0
C180
C180
6300
3C00
ENDCHAR

STARTCHAR Ocircumflex
ENCODING 212
SWIDTH 833 0
DWIDTH 11 0
BBX 10 12 1 0
BITMAP
0200
0500
0000
0F00
3180
60C0
60C0
C0C0
C180
C180
6300
3C00
ENDCHAR

STARTCHAR Ohungarumlaut
ENCODING 213
SWIDTH 833 0
DWIDTH 11 0
BBX 10 12 1 0
BITMAP
0D80
1200
0000
0F00
3180
60C0
60C0
C0C0
C180
C180
6300
3C00
ENDCHAR

STARTCHAR Odieresis
ENCODING 214
SWIDTH 833 0
DWIDTH 11 0
BBX 10 11 1 0
BITMAP
0D80
0000
0F00
3180
60C0
60C0
C0C0
C180
C180
6300
3C00
ENDCHAR

STARTCHAR multiply
ENCODING 215
SWIDTH 650 0
DWIDTH 8 0
BBX 6 7 1 1
BITMAP
84
CC
78
30
78
CC
84
ENDCHAR

STARTCHAR Rcaron
ENCODING 216
SWIDTH 796 0
DWIDTH 10 0
BBX 10 12 0 0
BITMAP
0500
0200
0000
3F80
18C0
18C0
30C0
3F80
3300
6300
6340
F180
ENDCHAR

STARTCHAR Uring
ENCODING 217
SWIDTH 833 0
DWIDTH 11 0
BBX 11 13 1 0
BITMAP
0200
0500
0200
0000
78E0
3040
3040
6080
6080
C100
C100
E200
7C00
ENDCHAR

STARTCHAR Uacute
ENCODING 218
SWIDTH 833 0
DWIDTH 11 0
BBX 11 12 1 0
BITMAP
0180
0200
0000
78E0
3040
3040
6080
6080
C100
C100
E200
7C00
ENDCHAR

STARTCHAR Uhungarumlaut
ENCODING 219
SWIDTH 833 0
DWIDTH 11 0
BBX 11 12 1 0
BITMAP
06C0
0900
0000
78E0
3040
3040
6080
6080
C100
C100
E200
7C00
ENDCHAR

STARTCHAR Udieresis
ENCODING 220
SWIDTH 833 0
DWIDTH 11 0
BBX 11 11 1 0
BITMAP
0D80
0000
78E0
3040
3040
6080
6080
C100
C100
E200
7C00
ENDCHAR

STARTCHAR Yacute
ENCODING 221
SWIDTH 704 0
DWIDTH 9 0
BBX 10 12 1 0
BITMAP
0600
0800
0000
F3C0
6180
6100
3200
3C00
1800
1800
1800
3C00
ENDCHAR

STARTCHAR Tcommaaccent
ENCODING 222
SWIDTH 722 0
DWIDTH 9 0
BBX 9 12 1 -3
BITMAP
7F80
6D80
CC80
9880
1800
1800
3000
3000
7800
0000
2000
4000
ENDCHAR

STARTCHAR germandbls
ENCODING 223
SWIDTH 574 0
DWIDTH 7 0
BBX 9 11 -1 -2
BITMAP
0F00
1980
1B00
3600
3300
3300
3300
6A00
6C00
6000
C000
ENDCHAR

STARTCHAR racute
ENCODING 224
SWIDTH 519 0
DWIDTH 6 0
BBX 6 9 1 0
BITMAP
18
20
00
D8
6C
60
C0
C0
C0
ENDCHAR

STARTCHAR aacute
ENCODING 225
SWIDTH 667 0
DWIDTH 9 0
BBX 7 9 1 0
BITMAP
0C
10
00
3A
6E
C6
CC
DE
6C
ENDCHAR

STARTCHAR acircumflex
ENCODING 226
SWIDTH 667 0
DWIDTH 9 0
BBX 7 9 1 0
BITMAP
08
14
00
3A
6E
C6
CC
DE
6C
ENDCHAR

STARTCHAR abreve
ENCODING 227
SWIDTH 667 0
DWIDTH 9 0
BBX 7 9 1 0
BITMAP
24
18
00
3A
6E
C6
CC
DE
6C
ENDCHAR

STARTCHAR adieresis
ENCODING 228
SWIDTH 667 0
DWIDTH 9 0
BBX 7 8 1 0
BITMAP
36
00
3A
6E
C6
CC
DE
6C
ENDCHAR

STARTCHAR lacute
ENCODING 229
SWIDTH 389 0
DWIDTH 5 0
BBX 5 12 1 0
BITMAP
18
20
00
70
30
30
60
60
60
C0
D0
60
ENDCHAR

STARTCHAR cacute
ENCODING 230
SWIDTH 537 0
DWIDTH 7 0
BBX 6 9 1 0
BITMAP
0C
10
00
38
6C
C4
C0
C8
70
ENDCHAR

STARTCHAR ccedilla
ENCODING 231
SWIDTH 537 0
DWIDTH 7 0
BBX 6 9 1 -3
BITMAP
38
6C
C4
C0
C8
70
20
10
60
ENDCHAR

STARTCHAR ccaron
ENCODING 232
SWIDTH 537 0
DWIDTH 7 0
BBX 6 9 1 0
BITMAP
28
10
00
38
6C
C4
C0
C8
70
ENDCHAR

STARTCHAR eacute
ENCODING 233
SWIDTH 519 0
DWIDTH 7 0
BBX 6 9 1 0
BITMAP
0C
10
00
38
6C
CC
F0
C8
70
ENDCHAR

STARTCHAR eogonek
ENCODING 234
SWIDTH 519 0
DWIDTH 7 0
BBX 6 8 1 -2
BITMAP
38
6C
CC
F0
C8
70
20
18
ENDCHAR

STARTCHAR edieresis
ENCODING 235
SWIDTH 519 0
DWIDTH 7 0
BBX 7 8 1 0
BITMAP
36
00
38
6C
CC
F0
C8
70
ENDCHAR

STARTCHAR ecaron
ENCODING 236
SWIDTH 519 0
DWIDTH 7 0
BBX 6 9 1 0
BITMAP
28
10
00
38
6C
CC
F0
C8
70
ENDCHAR

STARTCHAR iacute
ENCODING 237
SWIDTH 389 0
DWIDTH 5 0
BBX 4 9 1 0
BITMAP
30
40
00
E0
60
60
C0
C0
60
ENDCHAR

STARTCHAR icircumflex
ENCODING 238
SWIDTH 389 0
DWIDTH 5 0
BBX 4 9 1 0
BITMAP
20
50
00
E0
60
60
C0
C0
60
ENDCHAR

STARTCHAR dcaron
ENCODING 239
SWIDTH 730 0
DWIDTH 9 0
BBX 10 9 1 0
BITMAP
0740
0340
0380
3E00
6600
C600
CC00
CD00
7600
ENDCHAR

STARTCHAR dcroat
ENCODING 240
SWIDTH 667 0
DWIDTH 9 0
BBX 9 9 1 0
BITMAP
0780
0300
0300
3E00
6600
C600
CC00
CD00
7600
ENDCHAR

STARTCHAR nacute
ENCODING 241
SWIDTH 685 0
DWIDTH 9 0
BBX 8 9 1 0
BITMAP
0C
10
00
EC
76
66
CC
CD
CE
ENDCHAR

STARTCHAR ncaron
ENCODING 242
SWIDTH 685 0
DWIDTH 9 0
BBX 8 9 1 0
BITMAP
28
10
00
EC
76
66
CC
CD
CE
ENDCHAR

STARTCHAR oacute
ENCODING 243
SWIDTH 574 0
DWIDTH 7 0
BBX 7 9 0 0
BITMAP
0C
10
00
3C
66
C6
C6
CC
78
ENDCHAR

STARTCHAR ocircumflex
ENCODING 244
SWIDTH 574 0
DWIDTH 7 0
BBX 7 9 0 0
BITMAP
08
14
00
3C
66
C6
C6
CC
78
ENDCHAR

STARTCHAR ohungarumlaut
ENCODING 245
SWIDTH 574 0
DWIDTH 7 0
BBX 8 9 0 0
BITMAP
1B
24
00
3C
66
C6
C6
CC
78
ENDCHAR

STARTCHAR odieresis
ENCODING 246
SWIDTH 574 0
DWIDTH 7 0
BBX 7 8 0 0
BITMAP
36
00
3C
66
C6
C6
CC
78
ENDCHAR

STARTCHAR divide
ENCODING 247
SWIDTH 650 0
DWIDTH 8 0
BBX 8 7 0 1
BITMAP
18
18
00
FF
00
18
18
ENDCHAR

STARTCHAR rcaron
ENCODING 248
SWIDTH 519 0
DWIDTH 6 0
BBX 6 9 1 0
BITMAP
28
10
00
D8
6C
60
C0
C0
C0
ENDCHAR

STARTCHAR uring
ENCODING 249
SWIDTH 685 0
DWIDTH 9 0
BBX 8 10 1 0
BITMAP
08
14
08
00
E6
66
CC
CC
DD
76
ENDCHAR

STARTCHAR uacute
ENCODING 250
SWIDTH 685 0
DWIDTH 9 0
BBX 8 9 1 0
BITMAP
0C
10
00
E6
66
CC
CC
DD
76
ENDCHAR

STARTCHAR uhungarumlaut
ENCODING 251
SWIDTH 685 0
DWIDTH 9 0
BBX 8 9 1 0
BITMAP
1B
24
00
E6
66
CC
CC
DD
76
ENDCHAR

STARTCHAR udieresis
ENCODING 252
SWIDTH 685 0
DWIDTH 9 0
BBX 8 8 1 0
BITMAP
36
00
E6
66
CC
CC
DD
76
ENDCHAR

STARTCHAR yacute
ENCODING 253
SWIDTH 519 0
DWIDTH 7 0
BBX 7 11 0 -2
BITMAP
06
08
00
32
5A
1A
1C
0C
0C
D8
70
ENDCHAR

STARTCHAR tcommaaccent
ENCODING 254
SWIDTH 407 0
DWIDTH 5 0
BBX 5 11 1 -3
BITMAP
30
30
F8
60
60
C0
D0
E0
00
40
80
ENDCHAR

STARTCHAR dotaccent
ENCODING 255
SWIDTH 333 0
DWIDTH 4 0
BBX 2 1 1 7
BITMAP
C0
ENDCHAR
ENDFONT
